#!OML:ASF F:\VICON\USERDATA\INSTALL\rory3\rory3.ASF
:FULLY-SPECIFIED
:DEGREES
249
root 4.19221 17.2223 0.539293 13.5319 2.32111 -3.42147
lowerback -3.77647 -0.836603 0.3274
upperback -5.02399 -1.0795 1.93809
thorax -3.02132 -0.514067 1.79978
lowerneck -8.56 11.7342 8.0637
upperneck 40.8032 16.1529 0.343346
head 16.9078 8.03389 1.48579
rclavicle 8.17347e-015 8.89561e-015
rhumerus 0.299223 0.311213 -17.6575
rradius 131.285
rwrist -51.9683
rhand -0.945599 -41.4435
rfingers 7.12502
rthumb 24.6844 -69.8713
lclavicle 8.17347e-015 8.89561e-015
lhumerus 35.2187 12.8308 3.44465
lradius 78.4007
lwrist 70.2686
lhand -19.3067 -17.2237
lfingers 7.12502
lthumb 7.00911 12.6402
rfemur -41.41 9.47211 11.4071
rtibia 63.3063
rfoot 1.6054 -5.43057
rtoes -19.885
lfemur -27.3686 -2.80622 -25.3032
ltibia 34.5876
lfoot -18.5731 10.1686
ltoes 11.7981
250
root 4.19378 17.2191 0.535088 13.5645 2.31284 -3.2596
lowerback -3.79404 -0.858908 0.199099
upperback -5.02642 -1.10866 1.8882
thorax -3.01164 -0.525408 1.81963
lowerneck -8.4263 11.7453 7.9504
upperneck 40.8405 16.201 0.369228
head 16.8796 8.04445 1.51164
rclavicle 1.38606e-014 6.21202e-016
rhumerus 0.216684 0.610136 -17.9809
rradius 131.313
rwrist -51.9256
rhand -0.71236 -41.9612
rfingers 7.12502
rthumb 24.9079 -70.3582
lclavicle 1.38606e-014 6.21202e-016
lhumerus 35.3921 12.6077 3.87589
lradius 78.4134
lwrist 70.2054
lhand -19.1669 -16.8387
lfingers 7.12502
lthumb 7.14404 13.0207
rfemur -41.8559 9.34689 11.3888
rtibia 63.67
rfoot 1.67897 -4.94306
rtoes -18.9805
lfemur -27.4318 -2.75114 -25.4918
ltibia 34.6231
lfoot -18.648 10.0317
ltoes 11.8783
251
root 4.19488 17.2258 0.531262 13.5325 2.28664 -3.18302
lowerback -3.72312 -0.850711 0.115708
upperback -5.01004 -1.09665 1.85471
thorax -3.03378 -0.5172 1.83299
lowerneck -8.43525 11.6889 7.81398
upperneck 40.9635 16.1205 0.458793
head 16.9152 8.00056 1.56114
rclavicle -1.04113e-014 -2.08724e-015
rhumerus 0.023894 0.906697 -18.2862
rradius 131.391
rwrist -51.7326
rhand -0.950543 -42.1165
rfingers 7.12502
rthumb 24.6796 -70.5449
lclavicle -1.04113e-014 -2.08724e-015
lhumerus 35.6059 12.3303 4.23861
lradius 78.4202
lwrist 70.2802
lhand -19.3112 -16.4319
lfingers 7.12502
lthumb 7.0048 13.4322
rfemur -42.246 9.33381 11.47
rtibia 63.9679
rfoot 1.67732 -4.56059
rtoes -18.0429
lfemur -27.4413 -2.54406 -25.5974
ltibia 34.6774
lfoot -18.764 9.76269
ltoes 12.1561
252
root 4.19577 17.2192 0.522429 13.4655 2.32227 -3.26148
lowerback -3.54813 -0.850378 0.226688
upperback -5.04202 -1.09495 1.86225
thorax -3.16713 -0.519232 1.78213
lowerneck -8.34765 11.5729 7.71469
upperneck 41.1738 15.9417 0.572975
head 16.9732 7.92587 1.59525
rclavicle -6.83322e-017 -9.29318e-015
rhumerus -0.244083 1.25722 -18.507
rradius 131.436
rwrist -51.7116
rhand -1.26517 -42.1258
rfingers 7.12502
rthumb 24.378 -70.5951
lclavicle -6.83322e-017 -9.29318e-015
lhumerus 35.8206 11.9811 4.62715
lradius 78.399
lwrist 70.3504
lhand -19.191 -15.1367
lfingers 7.12502
lthumb 7.12077 14.7235
rfemur -42.486 9.26632 11.7995
rtibia 64.2147
rfoot 1.66348 -4.10646
rtoes -19.2385
lfemur -27.4283 -2.38238 -25.5179
ltibia 34.7465
lfoot -18.9167 9.44227
ltoes 12.7688
253
root 4.1989 17.2063 0.513979 13.3959 2.39654 -3.23819
lowerback -3.44537 -0.87147 0.299881
upperback -5.04851 -1.1236 1.81714
thorax -3.23289 -0.536681 1.69631
lowerneck -8.1117 11.4888 7.76001
upperneck 41.3011 15.83 0.563928
head 16.9885 7.88934 1.55235
rclavicle -5.75e-016 -5.36719e-015
rhumerus -0.547211 1.54316 -18.7361
rradius 131.443
rwrist -51.8423
rhand -1.38708 -42.0764
rfingers 7.12502
rthumb 24.2611 -70.5614
lclavicle -5.75e-016 -5.36719e-015
lhumerus 35.9903 11.6915 4.97232
lradius 78.4534
lwrist 70.4376
lhand -19.2966 -15.2021
lfingers 7.12502
lthumb 7.01889 14.6615
rfemur -42.6085 9.01292 12.0198
rtibia 64.4446
rfoot 1.54072 -3.4928
rtoes -20.8205
lfemur -27.3577 -2.28919 -25.5672
ltibia 34.8175
lfoot -19.0614 9.23025
ltoes 12.4278
254
root 4.20178 17.2078 0.50757 13.3525 2.49344 -3.18202
lowerback -3.44988 -0.915641 0.293086
upperback -4.95478 -1.18501 1.77931
thorax -3.13175 -0.568599 1.65914
lowerneck -8.05752 11.5014 7.8123
upperneck 41.3543 15.8931 0.449043
head 17.0308 7.90608 1.50664
rclavicle 1.46017e-014 -1.02871e-014
rhumerus -0.775439 1.75189 -19.0717
rradius 131.419
rwrist -51.8179
rhand -1.5849 -41.5762
rfingers 7.12502
rthumb 24.0715 -70.0864
lclavicle 1.46017e-014 -1.02871e-014
lhumerus 36.1034 11.6014 5.31539
lradius 78.5823
lwrist 70.5874
lhand -19.7854 -16.8041
lfingers 7.12502
lthumb 6.54699 13.0747
rfemur -42.8165 8.67115 12.2029
rtibia 64.6401
rfoot 1.40489 -3.02804
rtoes -21.2066
lfemur -27.3465 -2.12496 -25.6545
ltibia 34.9276
lfoot -19.1234 8.993
ltoes 11.6035
255
root 4.20135 17.2073 0.495118 13.3482 2.5682 -3.17814
lowerback -3.43494 -0.947036 0.296797
upperback -4.79551 -1.22985 1.75885
thorax -2.9739 -0.592609 1.63339
lowerneck -8.39519 11.5911 7.93818
upperneck 41.4839 16.0806 0.242171
head 17.2422 7.95522 1.47303
rclavicle -1.24241e-014 9.27455e-015
rhumerus -0.858189 1.88828 -19.5066
rradius 131.347
rwrist -51.6445
rhand -1.62795 -41.2995
rfingers 7.12502
rthumb 24.0302 -69.8152
lclavicle -1.24241e-014 9.27455e-015
lhumerus 36.1848 11.6431 5.56856
lradius 78.7524
lwrist 70.7842
lhand -19.865 -17.3389
lfingers 7.12502
lthumb 6.47012 12.5422
rfemur -43.2097 8.35588 12.4513
rtibia 64.8216
rfoot 1.43656 -2.69781
rtoes -20.5761
lfemur -27.4406 -1.88755 -25.6683
ltibia 35.0012
lfoot -19.0747 8.71816
ltoes 11.0531
256
root 4.19794 17.1979 0.483013 13.3422 2.61834 -3.16214
lowerback -3.36684 -0.959372 0.288701
upperback -4.68567 -1.24825 1.70607
thorax -2.89846 -0.603096 1.58299
lowerneck -8.77507 11.6578 8.06018
upperneck 41.6978 16.1814 0.173531
head 17.4911 7.98302 1.49171
rclavicle -1.82866e-014 2.18663e-015
rhumerus -0.96526 1.96313 -20.0061
rradius 131.304
rwrist -51.6355
rhand -1.50781 -41.639
rfingers 7.12502
rthumb 24.1454 -70.1395
lclavicle -1.82866e-014 2.18663e-015
lhumerus 36.3454 11.6255 5.79615
lradius 78.8761
lwrist 70.9044
lhand -19.59 -16.3672
lfingers 7.12502
lthumb 6.73563 13.5057
rfemur -43.5316 8.09789 12.6992
rtibia 64.9556
rfoot 1.40316 -2.41454
rtoes -19.732
lfemur -27.4661 -1.64548 -25.6884
ltibia 34.9295
lfoot -19.0432 8.42923
ltoes 10.6943
257
root 4.19648 17.1995 0.485514 13.0857 2.46061 -3.25317
lowerback -3.18758 -0.901091 0.333214
upperback -4.56191 -1.17112 1.68356
thorax -2.87383 -0.566653 1.53699
lowerneck -8.87909 11.6617 8.03686
upperneck 41.8909 16.1619 0.278609
head 17.6099 7.97587 1.55709
rclavicle 7.35814e-015 -2.75814e-015
rhumerus -1.15037 2.12164 -20.4539
rradius 131.326
rwrist -51.7936
rhand -1.86077 -41.9177
rfingers 7.12502
rthumb 23.8069 -70.4626
lclavicle 7.35814e-015 -2.75814e-015
lhumerus 36.5572 11.4339 6.14323
lradius 78.8846
lwrist 70.9241
lhand -19.4854 -15.087
lfingers 7.12502
lthumb 6.83662 14.7826
rfemur -43.5091 8.17347 13.0357
rtibia 65.0182
rfoot 1.21988 -2.34144
rtoes -18.507
lfemur -27.14 -1.24894 -25.6311
ltibia 34.8858
lfoot -19.2229 8.26123
ltoes 10.639
258
root 4.20461 17.2211 0.508593 12.4006 1.87123 -3.34292
lowerback -2.90596 -0.708461 0.35693
upperback -4.2084 -0.916708 1.65206
thorax -2.67243 -0.441978 1.49273
lowerneck -8.91113 11.6406 7.95655
upperneck 41.9458 16.1462 0.289349
head 17.6363 7.95566 1.57564
rclavicle -4.92924e-015 9.88954e-015
rhumerus -1.25286 2.26455 -20.8283
rradius 131.266
rwrist -51.8348
rhand -2.13839 -41.8778
rfingers 7.12502
rthumb 23.5407 -70.4572
lclavicle -4.92924e-015 9.88954e-015
lhumerus 36.7558 11.2706 6.63525
lradius 78.8816
lwrist 70.8854
lhand -19.5035 -14.2997
lfingers 7.12502
lthumb 6.81907 15.5705
rfemur -43.0765 8.74639 13.2608
rtibia 64.9881
rfoot 1.26541 -2.27949
rtoes -16.1525
lfemur -26.1717 -0.581003 -25.6684
ltibia 34.7595
lfoot -19.5162 8.40107
ltoes 10.3646
259
root 4.19758 17.2072 0.499378 12.3413 1.8893 -3.12964
lowerback -2.85135 -0.749797 0.0575718
upperback -4.09157 -0.971063 1.6069
thorax -2.57675 -0.462157 1.61312
lowerneck -8.99555 11.593 7.82806
upperneck 41.9968 16.0931 0.305137
head 17.6642 7.91173 1.59994
rclavicle -1.49399e-015 -3.67752e-015
rhumerus -1.28347 2.36056 -21.2534
rradius 131.134
rwrist -51.7149
rhand -1.85757 -41.8204
rfingers 7.12502
rthumb 23.81 -70.3649
lclavicle -1.49399e-015 -3.67752e-015
lhumerus 36.964 11.1876 7.20489
lradius 78.9083
lwrist 70.7296
lhand -19.5919 -13.7202
lfingers 7.12502
lthumb 6.73378 16.1527
rfemur -43.1648 8.45729 13.3789
rtibia 65.0915
rfoot 1.44854 -1.9751
rtoes -19.0715
lfemur -26.1015 -0.318793 -25.9055
ltibia 34.6589
lfoot -19.5301 8.19716
ltoes 9.97572
